%TF.GenerationSoftware,KiCad,Pcbnew,(5.1.9)-1*%
%TF.CreationDate,2022-04-09T22:54:09+08:00*%
%TF.ProjectId,DB15_Switch_panelize,44423135-5f53-4776-9974-63685f70616e,rev?*%
%TF.SameCoordinates,Original*%
%TF.FileFunction,Profile,NP*%
%FSLAX46Y46*%
G04 Gerber Fmt 4.6, Leading zero omitted, Abs format (unit mm)*
G04 Created by KiCad (PCBNEW (5.1.9)-1) date 2022-04-09 22:54:09*
%MOMM*%
%LPD*%
G01*
G04 APERTURE LIST*
%TA.AperFunction,Profile*%
%ADD10C,0.050000*%
%TD*%
G04 APERTURE END LIST*
D10*
X103000000Y-85500000D02*
X103000000Y-119000000D01*
X166400000Y-85500000D02*
X166400000Y-119000000D01*
X144300000Y-129200000D02*
X156800000Y-129200000D01*
X198100000Y-85500000D02*
X166400000Y-85500000D01*
X134700000Y-119000000D02*
X144300000Y-122600000D01*
X198100000Y-119000000D02*
X198100000Y-85500000D01*
X134700000Y-85500000D02*
X134700000Y-119000000D01*
X156800000Y-122600000D02*
X166400000Y-119000000D01*
X176000000Y-129200000D02*
X188500000Y-129200000D01*
X188500000Y-129200000D02*
X188500000Y-122600000D01*
X166400000Y-119000000D02*
X166400000Y-85500000D01*
X156800000Y-129200000D02*
X156800000Y-122600000D01*
X166400000Y-119000000D02*
X176000000Y-122600000D01*
X176000000Y-122600000D02*
X176000000Y-129200000D01*
X144300000Y-122600000D02*
X144300000Y-129200000D01*
X188500000Y-122600000D02*
X198100000Y-119000000D01*
X166400000Y-85500000D02*
X134700000Y-85500000D01*
X112600000Y-129200000D02*
X125100000Y-129200000D01*
X134700000Y-119000000D02*
X134700000Y-85500000D01*
X103000000Y-119000000D02*
X112600000Y-122600000D01*
X112600000Y-122600000D02*
X112600000Y-129200000D01*
X125100000Y-129200000D02*
X125100000Y-122600000D01*
X125100000Y-122600000D02*
X134700000Y-119000000D01*
X134700000Y-85500000D02*
X103000000Y-85500000D01*
X134700000Y-85500000D02*
X134700000Y-52000000D01*
X166400000Y-85500000D02*
X166400000Y-52000000D01*
X125100000Y-41800000D02*
X112600000Y-41800000D01*
X156800000Y-41800000D02*
X144300000Y-41800000D01*
X103000000Y-52000000D02*
X103000000Y-85500000D01*
X134700000Y-52000000D02*
X134700000Y-85500000D01*
X134700000Y-52000000D02*
X125100000Y-48400000D01*
X166400000Y-52000000D02*
X156800000Y-48400000D01*
X125100000Y-48400000D02*
X125100000Y-41800000D01*
X156800000Y-48400000D02*
X156800000Y-41800000D01*
X112600000Y-41800000D02*
X112600000Y-48400000D01*
X144300000Y-41800000D02*
X144300000Y-48400000D01*
X112600000Y-48400000D02*
X103000000Y-52000000D01*
X144300000Y-48400000D02*
X134700000Y-52000000D01*
X103000000Y-85500000D02*
X134700000Y-85500000D01*
X134700000Y-85500000D02*
X166400000Y-85500000D01*
X166400000Y-85500000D02*
X198100000Y-85500000D01*
X166400000Y-52000000D02*
X166400000Y-85500000D01*
X176000000Y-48400000D02*
X166400000Y-52000000D01*
X176000000Y-41800000D02*
X176000000Y-48400000D01*
X188500000Y-41800000D02*
X176000000Y-41800000D01*
X188500000Y-48400000D02*
X188500000Y-41800000D01*
X198100000Y-52000000D02*
X188500000Y-48400000D01*
X198100000Y-85500000D02*
X198100000Y-52000000D01*
M02*
