M48
; DRILL file {KiCad (5.1.9)-1} date 04/09/22 22:54:13
; FORMAT={-:-/ absolute / inch / decimal}
; #@! TF.CreationDate,2022-04-09T22:54:13+08:00
; #@! TF.GenerationSoftware,Kicad,Pcbnew,(5.1.9)-1
FMAT,2
INCH
T1C0.0079
T2C0.0118
T3C0.0157
T4C0.0236
T5C0.0315
T6C0.0472
T7C0.1201
T8C0.0256
%
G90
G05
T1
X4.1074Y-2.2765
X4.1074Y-2.2972
X4.1723Y-2.6024
X4.1723Y-2.6231
X4.2144Y-2.4137
X4.2161Y-2.4531
X4.2362Y-2.4935
X4.2488Y-2.4747
X4.2494Y-2.5123
X4.25Y-2.376
X4.2502Y-2.1911
X4.2972Y-2.3563
X4.2981Y-4.3311
X4.3012Y-2.4114
X4.4087Y-2.5036
X4.5827Y-2.7638
X4.6142Y-4.3583
X4.6252Y-1.9561
X4.6281Y-4.7761
X4.6555Y-1.9665
X4.7028Y-4.7657
X4.7302Y-1.9561
X4.7331Y-4.7761
X4.7441Y-2.374
X4.7756Y-3.9685
X4.9495Y-4.2287
X5.0571Y-4.3209
X5.0602Y-2.4011
X5.061Y-4.376
X5.1081Y-4.5411
X5.1083Y-4.3563
X5.1089Y-4.22
X5.1095Y-4.2576
X5.122Y-4.2388
X5.1421Y-4.2792
X5.1439Y-4.3186
X5.1859Y-4.1092
X5.1859Y-4.1299
X5.2509Y-4.435
X5.2509Y-4.4558
X5.3554Y-2.2765
X5.3554Y-2.2972
X5.4204Y-2.6024
X5.4204Y-2.6231
X5.4624Y-2.4137
X5.4642Y-2.4531
X5.4843Y-2.4935
X5.4968Y-2.4747
X5.4974Y-2.5123
X5.498Y-2.376
X5.4982Y-2.1911
X5.5453Y-2.3563
X5.5461Y-4.3311
X5.5492Y-2.4114
X5.6568Y-2.5036
X5.8307Y-2.7638
X5.8622Y-4.3583
X5.8732Y-1.9561
X5.8761Y-4.7761
X5.9035Y-1.9665
X5.9508Y-4.7657
X5.9782Y-1.9561
X5.9811Y-4.7761
X5.9921Y-2.374
X6.0236Y-3.9685
X6.1976Y-4.2287
X6.3051Y-4.3209
X6.3082Y-2.4011
X6.3091Y-4.376
X6.3561Y-4.5411
X6.3563Y-4.3563
X6.3569Y-4.22
X6.3575Y-4.2576
X6.3701Y-4.2388
X6.3902Y-4.2792
X6.3919Y-4.3186
X6.434Y-4.1092
X6.434Y-4.1299
X6.4989Y-4.435
X6.4989Y-4.4558
X6.6034Y-2.2765
X6.6034Y-2.2972
X6.6684Y-2.6024
X6.6684Y-2.6231
X6.7105Y-2.4137
X6.7122Y-2.4531
X6.7323Y-2.4935
X6.7448Y-2.4747
X6.7455Y-2.5123
X6.7461Y-2.376
X6.7462Y-2.1911
X6.7933Y-2.3563
X6.7942Y-4.3311
X6.7972Y-2.4114
X6.9048Y-2.5036
X7.0787Y-2.7638
X7.1102Y-4.3583
X7.1212Y-1.9561
X7.1242Y-4.7761
X7.1516Y-1.9665
X7.1988Y-4.7657
X7.2262Y-1.9561
X7.2292Y-4.7761
X7.2402Y-2.374
X7.2717Y-3.9685
X7.4456Y-4.2287
X7.5531Y-4.3209
X7.5562Y-2.4011
X7.5571Y-4.376
X7.6042Y-4.5411
X7.6043Y-4.3563
X7.6049Y-4.22
X7.6056Y-4.2576
X7.6181Y-4.2388
X7.6382Y-4.2792
X7.6399Y-4.3186
X7.682Y-4.1092
X7.682Y-4.1299
X7.747Y-4.435
X7.747Y-4.4558
T2
X4.1352Y-2.2161
X4.1652Y-2.2161
X4.1752Y-2.0561
X4.2131Y-2.0991
X4.2752Y-2.6661
X4.2769Y-2.7446
X4.2835Y-2.1024
X4.2902Y-2.1861
X4.3635Y-2.6777
X4.3652Y-2.7361
X4.3858Y-4.3681
X4.3952Y-2.0561
X4.3957Y-2.1398
X4.4291Y-2.1594
X4.4531Y-4.4561
X4.4731Y-4.1961
X4.496Y-2.5186
X4.5177Y-2.189
X4.5226Y-2.5581
X4.5531Y-4.4561
X4.5768Y-2.5039
X4.5931Y-4.9173
X4.5931Y-4.9488
X4.5931Y-4.9843
X4.5931Y-5.0177
X4.5943Y-2.2874
X4.5952Y-1.7087
X4.5952Y-1.7461
X4.5952Y-1.7815
X4.5952Y-1.813
X4.5986Y-4.3018
X4.6083Y-4.3287
X4.617Y-2.3189
X4.7412Y-4.4134
X4.75Y-2.4035
X4.7596Y-2.4305
X4.7631Y-4.9193
X4.7631Y-4.9508
X4.7631Y-4.9862
X4.7631Y-5.0236
X4.7639Y-4.4449
X4.7652Y-1.7146
X4.7652Y-1.748
X4.7652Y-1.7835
X4.7652Y-1.815
X4.7815Y-4.2283
X4.8052Y-2.2761
X4.8356Y-4.1742
X4.8406Y-4.5433
X4.8623Y-4.2137
X4.8852Y-2.5361
X4.9052Y-2.2761
X4.9291Y-4.5728
X4.9626Y-4.5925
X4.9631Y-4.6761
X4.9724Y-2.3642
X4.9931Y-3.9961
X4.9948Y-4.0546
X5.0681Y-4.5461
X5.0748Y-4.6299
X5.0814Y-3.9877
X5.0831Y-4.0661
X5.1451Y-4.6332
X5.1831Y-4.6761
X5.1931Y-4.5161
X5.2231Y-4.5161
X5.3832Y-2.2161
X5.4132Y-2.2161
X5.4232Y-2.0561
X5.4612Y-2.0991
X5.5232Y-2.6661
X5.5249Y-2.7446
X5.5315Y-2.1024
X5.5382Y-2.1861
X5.6115Y-2.6777
X5.6132Y-2.7361
X5.6339Y-4.3681
X5.6432Y-2.0561
X5.6437Y-2.1398
X5.6772Y-2.1594
X5.7011Y-4.4561
X5.7211Y-4.1961
X5.744Y-2.5186
X5.7657Y-2.189
X5.7707Y-2.5581
X5.8011Y-4.4561
X5.8248Y-2.5039
X5.8411Y-4.9173
X5.8411Y-4.9488
X5.8411Y-4.9843
X5.8411Y-5.0177
X5.8424Y-2.2874
X5.8432Y-1.7087
X5.8432Y-1.7461
X5.8432Y-1.7815
X5.8432Y-1.813
X5.8467Y-4.3018
X5.8563Y-4.3287
X5.8651Y-2.3189
X5.9893Y-4.4134
X5.998Y-2.4035
X6.0077Y-2.4305
X6.0111Y-4.9193
X6.0111Y-4.9508
X6.0111Y-4.9862
X6.0111Y-5.0236
X6.012Y-4.4449
X6.0132Y-1.7146
X6.0132Y-1.748
X6.0132Y-1.7835
X6.0132Y-1.815
X6.0295Y-4.2283
X6.0532Y-2.2761
X6.0837Y-4.1742
X6.0886Y-4.5433
X6.1103Y-4.2137
X6.1332Y-2.5361
X6.1532Y-2.2761
X6.1772Y-4.5728
X6.2106Y-4.5925
X6.2111Y-4.6761
X6.2205Y-2.3642
X6.2411Y-3.9961
X6.2428Y-4.0546
X6.3161Y-4.5461
X6.3228Y-4.6299
X6.3294Y-3.9877
X6.3311Y-4.0661
X6.3932Y-4.6332
X6.4311Y-4.6761
X6.4411Y-4.5161
X6.4711Y-4.5161
X6.6312Y-2.2161
X6.6612Y-2.2161
X6.6712Y-2.0561
X6.7092Y-2.0991
X6.7712Y-2.6661
X6.7729Y-2.7446
X6.7795Y-2.1024
X6.7862Y-2.1861
X6.8595Y-2.6777
X6.8612Y-2.7361
X6.8819Y-4.3681
X6.8912Y-2.0561
X6.8917Y-2.1398
X6.9252Y-2.1594
X6.9492Y-4.4561
X6.9692Y-4.1961
X6.992Y-2.5186
X7.0138Y-2.189
X7.0187Y-2.5581
X7.0492Y-4.4561
X7.0728Y-2.5039
X7.0892Y-4.9173
X7.0892Y-4.9488
X7.0892Y-4.9843
X7.0892Y-5.0177
X7.0904Y-2.2874
X7.0912Y-1.7087
X7.0912Y-1.7461
X7.0912Y-1.7815
X7.0912Y-1.813
X7.0947Y-4.3018
X7.1043Y-4.3287
X7.1131Y-2.3189
X7.2373Y-4.4134
X7.2461Y-2.4035
X7.2557Y-2.4305
X7.2592Y-4.9193
X7.2592Y-4.9508
X7.2592Y-4.9862
X7.2592Y-5.0236
X7.26Y-4.4449
X7.2612Y-1.7146
X7.2612Y-1.748
X7.2612Y-1.7835
X7.2612Y-1.815
X7.2776Y-4.2283
X7.3012Y-2.2761
X7.3317Y-4.1742
X7.3366Y-4.5433
X7.3584Y-4.2137
X7.3812Y-2.5361
X7.4012Y-2.2761
X7.4252Y-4.5728
X7.4587Y-4.5925
X7.4592Y-4.6761
X7.4685Y-2.3642
X7.4892Y-3.9961
X7.4909Y-4.0546
X7.5642Y-4.5461
X7.5709Y-4.6299
X7.5775Y-3.9877
X7.5792Y-4.0661
X7.6412Y-4.6332
X7.6792Y-4.6761
X7.6892Y-4.5161
X7.7192Y-4.5161
T3
X4.2381Y-4.0111
X4.2381Y-4.1111
X5.1202Y-2.6211
X5.1202Y-2.7211
X5.4861Y-4.0111
X5.4861Y-4.1111
X6.3682Y-2.6211
X6.3682Y-2.7211
X6.7342Y-4.0111
X6.7342Y-4.1111
X7.6162Y-2.6211
X7.6162Y-2.7211
T5
X4.4772Y-4.0811
X4.4772Y-4.6811
X4.4811Y-2.0511
X4.4811Y-2.6511
X4.5772Y-4.0811
X4.5772Y-4.6811
X4.5811Y-2.0511
X4.5811Y-2.6511
X4.6772Y-4.0811
X4.6772Y-4.6811
X4.6811Y-2.0511
X4.6811Y-2.6511
X4.7772Y-4.0811
X4.7772Y-4.6811
X4.7811Y-2.0511
X4.7811Y-2.6511
X4.8772Y-4.0811
X4.8772Y-4.6811
X4.8811Y-2.0511
X4.8811Y-2.6511
X5.7252Y-4.0811
X5.7252Y-4.6811
X5.7291Y-2.0511
X5.7291Y-2.6511
X5.8252Y-4.0811
X5.8252Y-4.6811
X5.8291Y-2.0511
X5.8291Y-2.6511
X5.9252Y-4.0811
X5.9252Y-4.6811
X5.9291Y-2.0511
X5.9291Y-2.6511
X6.0252Y-4.0811
X6.0252Y-4.6811
X6.0291Y-2.0511
X6.0291Y-2.6511
X6.1252Y-4.0811
X6.1252Y-4.6811
X6.1291Y-2.0511
X6.1291Y-2.6511
X6.9732Y-4.0811
X6.9732Y-4.6811
X6.9772Y-2.0511
X6.9772Y-2.6511
X7.0732Y-4.0811
X7.0732Y-4.6811
X7.0772Y-2.0511
X7.0772Y-2.6511
X7.1732Y-4.0811
X7.1732Y-4.6811
X7.1772Y-2.0511
X7.1772Y-2.6511
X7.2732Y-4.0811
X7.2732Y-4.6811
X7.2772Y-2.0511
X7.2772Y-2.6511
X7.3732Y-4.0811
X7.3732Y-4.6811
X7.3772Y-2.0511
X7.3772Y-2.6511
T6
X4.4753Y-3.6661
X4.4753Y-3.8661
X4.4773Y-2.9661
X4.5204Y-3.7661
X4.5224Y-2.8661
X4.5224Y-3.0661
X4.5654Y-3.6661
X4.5654Y-3.8661
X4.5675Y-2.9661
X4.6105Y-3.7661
X4.6125Y-2.8661
X4.6125Y-3.0661
X4.6556Y-3.6661
X4.6556Y-3.8661
X4.6576Y-2.9661
X4.7006Y-3.7661
X4.7027Y-2.8661
X4.7027Y-3.0661
X4.7457Y-3.6661
X4.7457Y-3.8661
X4.7478Y-2.9661
X4.7908Y-3.7661
X4.7928Y-2.8661
X4.7928Y-3.0661
X4.8359Y-3.6661
X4.8359Y-3.8661
X4.8379Y-2.9661
X4.8809Y-3.7661
X4.883Y-2.8661
X4.883Y-3.0661
X5.7233Y-3.6661
X5.7233Y-3.8661
X5.7254Y-2.9661
X5.7684Y-3.7661
X5.7704Y-2.8661
X5.7704Y-3.0661
X5.8135Y-3.6661
X5.8135Y-3.8661
X5.8155Y-2.9661
X5.8585Y-3.7661
X5.8606Y-2.8661
X5.8606Y-3.0661
X5.9036Y-3.6661
X5.9036Y-3.8661
X5.9057Y-2.9661
X5.9487Y-3.7661
X5.9507Y-2.8661
X5.9507Y-3.0661
X5.9938Y-3.6661
X5.9938Y-3.8661
X5.9958Y-2.9661
X6.0388Y-3.7661
X6.0409Y-2.8661
X6.0409Y-3.0661
X6.0839Y-3.6661
X6.0839Y-3.8661
X6.0859Y-2.9661
X6.129Y-3.7661
X6.131Y-2.8661
X6.131Y-3.0661
X6.9713Y-3.6661
X6.9713Y-3.8661
X6.9734Y-2.9661
X7.0164Y-3.7661
X7.0185Y-2.8661
X7.0185Y-3.0661
X7.0615Y-3.6661
X7.0615Y-3.8661
X7.0635Y-2.9661
X7.1065Y-3.7661
X7.1086Y-2.8661
X7.1086Y-3.0661
X7.1517Y-3.6661
X7.1517Y-3.8661
X7.1537Y-2.9661
X7.1967Y-3.7661
X7.1987Y-2.8661
X7.1987Y-3.0661
X7.2418Y-3.6661
X7.2418Y-3.8661
X7.2439Y-2.9661
X7.2869Y-3.7661
X7.2889Y-2.8661
X7.2889Y-3.0661
X7.3319Y-3.6661
X7.3319Y-3.8661
X7.334Y-2.9661
X7.377Y-3.7661
X7.3791Y-2.8661
X7.3791Y-3.0661
T7
X4.1862Y-3.7661
X4.1882Y-2.9661
X5.17Y-3.7661
X5.1721Y-2.9661
X5.4342Y-3.7661
X5.4363Y-2.9661
X6.4181Y-3.7661
X6.4201Y-2.9661
X6.6822Y-3.7661
X6.6843Y-2.9661
X7.6661Y-3.7661
X7.6681Y-2.9661
T8
X4.5634Y-4.8839
X4.5673Y-1.8484
X4.7909Y-4.8839
X4.7949Y-1.8484
X5.8114Y-4.8839
X5.8154Y-1.8484
X6.039Y-4.8839
X6.0429Y-1.8484
X7.0594Y-4.8839
X7.0634Y-1.8484
X7.287Y-4.8839
X7.2909Y-1.8484
T4
G00X4.5071Y-4.8413
M15
G01X4.5071Y-4.8846
M16
G05
G00X4.5071Y-5.0157
M15
G01X4.5071Y-5.0394
M16
G05
G00X4.511Y-1.7165
M15
G01X4.511Y-1.6929
M16
G05
G00X4.511Y-1.8909
M15
G01X4.511Y-1.8476
M16
G05
G00X4.8472Y-4.8413
M15
G01X4.8472Y-4.8846
M16
G05
G00X4.8472Y-5.0157
M15
G01X4.8472Y-5.0394
M16
G05
G00X4.8512Y-1.7165
M15
G01X4.8512Y-1.6929
M16
G05
G00X4.8512Y-1.8909
M15
G01X4.8512Y-1.8476
M16
G05
G00X5.7551Y-4.8413
M15
G01X5.7551Y-4.8846
M16
G05
G00X5.7551Y-5.0157
M15
G01X5.7551Y-5.0394
M16
G05
G00X5.7591Y-1.7165
M15
G01X5.7591Y-1.6929
M16
G05
G00X5.7591Y-1.8909
M15
G01X5.7591Y-1.8476
M16
G05
G00X6.0953Y-4.8413
M15
G01X6.0953Y-4.8846
M16
G05
G00X6.0953Y-5.0157
M15
G01X6.0953Y-5.0394
M16
G05
G00X6.0992Y-1.7165
M15
G01X6.0992Y-1.6929
M16
G05
G00X6.0992Y-1.8909
M15
G01X6.0992Y-1.8476
M16
G05
G00X7.0031Y-4.8413
M15
G01X7.0031Y-4.8846
M16
G05
G00X7.0031Y-5.0157
M15
G01X7.0031Y-5.0394
M16
G05
G00X7.0071Y-1.7165
M15
G01X7.0071Y-1.6929
M16
G05
G00X7.0071Y-1.8909
M15
G01X7.0071Y-1.8476
M16
G05
G00X7.3433Y-4.8413
M15
G01X7.3433Y-4.8846
M16
G05
G00X7.3433Y-5.0157
M15
G01X7.3433Y-5.0394
M16
G05
G00X7.3472Y-1.7165
M15
G01X7.3472Y-1.6929
M16
G05
G00X7.3472Y-1.8909
M15
G01X7.3472Y-1.8476
M16
G05
T0
M30
