%TF.GenerationSoftware,KiCad,Pcbnew,(5.1.9)-1*%
%TF.CreationDate,2022-04-09T22:54:09+08:00*%
%TF.ProjectId,DB15_Switch_panelize,44423135-5f53-4776-9974-63685f70616e,rev?*%
%TF.SameCoordinates,Original*%
%TF.FileFunction,Legend,Bot*%
%TF.FilePolarity,Positive*%
%FSLAX46Y46*%
G04 Gerber Fmt 4.6, Leading zero omitted, Abs format (unit mm)*
G04 Created by KiCad (PCBNEW (5.1.9)-1) date 2022-04-09 22:54:09*
%MOMM*%
%LPD*%
G01*
G04 APERTURE LIST*
%ADD10C,0.120000*%
%ADD11C,0.150000*%
G04 APERTURE END LIST*
D10*
%TO.C,C2*%
X193773748Y-117350000D02*
X194296252Y-117350000D01*
X193773748Y-115880000D02*
X194296252Y-115880000D01*
X162073748Y-117350000D02*
X162596252Y-117350000D01*
X162073748Y-115880000D02*
X162596252Y-115880000D01*
%TO.C,C11*%
X191776000Y-102652252D02*
X191776000Y-102129748D01*
X193246000Y-102652252D02*
X193246000Y-102129748D01*
%TO.C,C1*%
X186961252Y-110685000D02*
X186438748Y-110685000D01*
X186961252Y-109215000D02*
X186438748Y-109215000D01*
X155261252Y-110685000D02*
X154738748Y-110685000D01*
X155261252Y-109215000D02*
X154738748Y-109215000D01*
%TO.C,R2*%
X184356064Y-123446000D02*
X183901936Y-123446000D01*
X184356064Y-121976000D02*
X183901936Y-121976000D01*
%TO.C,R9*%
X187681564Y-112778000D02*
X187227436Y-112778000D01*
X187681564Y-111308000D02*
X187227436Y-111308000D01*
%TO.C,F1*%
X180837748Y-127960000D02*
X183610252Y-127960000D01*
X180837748Y-124540000D02*
X183610252Y-124540000D01*
X149137748Y-127960000D02*
X151910252Y-127960000D01*
X149137748Y-124540000D02*
X151910252Y-124540000D01*
%TO.C,C11*%
X160076000Y-102652252D02*
X160076000Y-102129748D01*
X161546000Y-102652252D02*
X161546000Y-102129748D01*
%TO.C,R8*%
X155958064Y-114810000D02*
X155503936Y-114810000D01*
X155958064Y-113340000D02*
X155503936Y-113340000D01*
X187658064Y-114810000D02*
X187203936Y-114810000D01*
X187658064Y-113340000D02*
X187203936Y-113340000D01*
%TO.C,R9*%
X155981564Y-112778000D02*
X155527436Y-112778000D01*
X155981564Y-111308000D02*
X155527436Y-111308000D01*
%TO.C,C2*%
X130373748Y-115880000D02*
X130896252Y-115880000D01*
X130373748Y-117350000D02*
X130896252Y-117350000D01*
%TO.C,R2*%
X152656064Y-123446000D02*
X152201936Y-123446000D01*
X152656064Y-121976000D02*
X152201936Y-121976000D01*
%TO.C,C1*%
X123561252Y-109215000D02*
X123038748Y-109215000D01*
X123561252Y-110685000D02*
X123038748Y-110685000D01*
%TO.C,R8*%
X124258064Y-113340000D02*
X123803936Y-113340000D01*
X124258064Y-114810000D02*
X123803936Y-114810000D01*
%TO.C,R9*%
X124281564Y-111308000D02*
X123827436Y-111308000D01*
X124281564Y-112778000D02*
X123827436Y-112778000D01*
%TO.C,C11*%
X129846000Y-102652252D02*
X129846000Y-102129748D01*
X128376000Y-102652252D02*
X128376000Y-102129748D01*
%TO.C,F1*%
X117437748Y-124540000D02*
X120210252Y-124540000D01*
X117437748Y-127960000D02*
X120210252Y-127960000D01*
%TO.C,R2*%
X120956064Y-121976000D02*
X120501936Y-121976000D01*
X120956064Y-123446000D02*
X120501936Y-123446000D01*
%TO.C,R1*%
X117042564Y-121849000D02*
X116588436Y-121849000D01*
X117042564Y-123319000D02*
X116588436Y-123319000D01*
%TO.C,R3*%
X126851936Y-119509000D02*
X127306064Y-119509000D01*
X126851936Y-118039000D02*
X127306064Y-118039000D01*
%TO.C,R4*%
X130862064Y-118039000D02*
X130407936Y-118039000D01*
X130862064Y-119509000D02*
X130407936Y-119509000D01*
%TO.C,U1*%
X129492000Y-115325000D02*
X126042000Y-115325000D01*
X129492000Y-115325000D02*
X131442000Y-115325000D01*
X129492000Y-105205000D02*
X127542000Y-105205000D01*
X129492000Y-105205000D02*
X131442000Y-105205000D01*
%TO.C,C12*%
X126090000Y-102129748D02*
X126090000Y-102652252D01*
X127560000Y-102129748D02*
X127560000Y-102652252D01*
%TO.C,R4*%
X194262064Y-119509000D02*
X193807936Y-119509000D01*
X194262064Y-118039000D02*
X193807936Y-118039000D01*
X162562064Y-119509000D02*
X162107936Y-119509000D01*
X162562064Y-118039000D02*
X162107936Y-118039000D01*
%TO.C,R1*%
X148742564Y-123319000D02*
X148288436Y-123319000D01*
X148742564Y-121849000D02*
X148288436Y-121849000D01*
%TO.C,C12*%
X190960000Y-102129748D02*
X190960000Y-102652252D01*
X189490000Y-102129748D02*
X189490000Y-102652252D01*
%TO.C,R1*%
X180442564Y-123319000D02*
X179988436Y-123319000D01*
X180442564Y-121849000D02*
X179988436Y-121849000D01*
%TO.C,R3*%
X190251936Y-118039000D02*
X190706064Y-118039000D01*
X190251936Y-119509000D02*
X190706064Y-119509000D01*
%TO.C,U1*%
X192892000Y-105205000D02*
X194842000Y-105205000D01*
X192892000Y-105205000D02*
X190942000Y-105205000D01*
X192892000Y-115325000D02*
X194842000Y-115325000D01*
X192892000Y-115325000D02*
X189442000Y-115325000D01*
X161192000Y-105205000D02*
X163142000Y-105205000D01*
X161192000Y-105205000D02*
X159242000Y-105205000D01*
X161192000Y-115325000D02*
X163142000Y-115325000D01*
X161192000Y-115325000D02*
X157742000Y-115325000D01*
%TO.C,R3*%
X158551936Y-118039000D02*
X159006064Y-118039000D01*
X158551936Y-119509000D02*
X159006064Y-119509000D01*
%TO.C,C12*%
X159260000Y-102129748D02*
X159260000Y-102652252D01*
X157790000Y-102129748D02*
X157790000Y-102652252D01*
%TO.C,C2*%
X107326252Y-55120000D02*
X106803748Y-55120000D01*
X107326252Y-53650000D02*
X106803748Y-53650000D01*
X139026252Y-55120000D02*
X138503748Y-55120000D01*
X139026252Y-53650000D02*
X138503748Y-53650000D01*
%TO.C,C1*%
X114138748Y-61785000D02*
X114661252Y-61785000D01*
X114138748Y-60315000D02*
X114661252Y-60315000D01*
X145838748Y-61785000D02*
X146361252Y-61785000D01*
X145838748Y-60315000D02*
X146361252Y-60315000D01*
%TO.C,R8*%
X113441936Y-57660000D02*
X113896064Y-57660000D01*
X113441936Y-56190000D02*
X113896064Y-56190000D01*
X145141936Y-57660000D02*
X145596064Y-57660000D01*
X145141936Y-56190000D02*
X145596064Y-56190000D01*
%TO.C,R9*%
X113418436Y-59692000D02*
X113872564Y-59692000D01*
X113418436Y-58222000D02*
X113872564Y-58222000D01*
X145118436Y-59692000D02*
X145572564Y-59692000D01*
X145118436Y-58222000D02*
X145572564Y-58222000D01*
%TO.C,C11*%
X107854000Y-68347748D02*
X107854000Y-68870252D01*
X109324000Y-68347748D02*
X109324000Y-68870252D01*
X139554000Y-68347748D02*
X139554000Y-68870252D01*
X141024000Y-68347748D02*
X141024000Y-68870252D01*
%TO.C,F1*%
X120262252Y-46460000D02*
X117489748Y-46460000D01*
X120262252Y-43040000D02*
X117489748Y-43040000D01*
X151962252Y-46460000D02*
X149189748Y-46460000D01*
X151962252Y-43040000D02*
X149189748Y-43040000D01*
%TO.C,R2*%
X116743936Y-49024000D02*
X117198064Y-49024000D01*
X116743936Y-47554000D02*
X117198064Y-47554000D01*
X148443936Y-49024000D02*
X148898064Y-49024000D01*
X148443936Y-47554000D02*
X148898064Y-47554000D01*
%TO.C,R1*%
X120657436Y-49151000D02*
X121111564Y-49151000D01*
X120657436Y-47681000D02*
X121111564Y-47681000D01*
X152357436Y-49151000D02*
X152811564Y-49151000D01*
X152357436Y-47681000D02*
X152811564Y-47681000D01*
%TO.C,R3*%
X110848064Y-51491000D02*
X110393936Y-51491000D01*
X110848064Y-52961000D02*
X110393936Y-52961000D01*
X142548064Y-51491000D02*
X142093936Y-51491000D01*
X142548064Y-52961000D02*
X142093936Y-52961000D01*
%TO.C,R4*%
X106837936Y-52961000D02*
X107292064Y-52961000D01*
X106837936Y-51491000D02*
X107292064Y-51491000D01*
X138537936Y-52961000D02*
X138992064Y-52961000D01*
X138537936Y-51491000D02*
X138992064Y-51491000D01*
%TO.C,U1*%
X108208000Y-55675000D02*
X111658000Y-55675000D01*
X108208000Y-55675000D02*
X106258000Y-55675000D01*
X108208000Y-65795000D02*
X110158000Y-65795000D01*
X108208000Y-65795000D02*
X106258000Y-65795000D01*
X139908000Y-55675000D02*
X143358000Y-55675000D01*
X139908000Y-55675000D02*
X137958000Y-55675000D01*
X139908000Y-65795000D02*
X141858000Y-65795000D01*
X139908000Y-65795000D02*
X137958000Y-65795000D01*
%TO.C,C12*%
X111610000Y-68870252D02*
X111610000Y-68347748D01*
X110140000Y-68870252D02*
X110140000Y-68347748D01*
X143310000Y-68870252D02*
X143310000Y-68347748D01*
X141840000Y-68870252D02*
X141840000Y-68347748D01*
%TO.C,C1*%
X177538748Y-60315000D02*
X178061252Y-60315000D01*
X177538748Y-61785000D02*
X178061252Y-61785000D01*
%TO.C,U1*%
X171608000Y-65795000D02*
X169658000Y-65795000D01*
X171608000Y-65795000D02*
X173558000Y-65795000D01*
X171608000Y-55675000D02*
X169658000Y-55675000D01*
X171608000Y-55675000D02*
X175058000Y-55675000D01*
%TO.C,R9*%
X176818436Y-58222000D02*
X177272564Y-58222000D01*
X176818436Y-59692000D02*
X177272564Y-59692000D01*
%TO.C,R8*%
X176841936Y-56190000D02*
X177296064Y-56190000D01*
X176841936Y-57660000D02*
X177296064Y-57660000D01*
%TO.C,R4*%
X170237936Y-51491000D02*
X170692064Y-51491000D01*
X170237936Y-52961000D02*
X170692064Y-52961000D01*
%TO.C,R3*%
X174248064Y-52961000D02*
X173793936Y-52961000D01*
X174248064Y-51491000D02*
X173793936Y-51491000D01*
%TO.C,R2*%
X180143936Y-47554000D02*
X180598064Y-47554000D01*
X180143936Y-49024000D02*
X180598064Y-49024000D01*
%TO.C,R1*%
X184057436Y-47681000D02*
X184511564Y-47681000D01*
X184057436Y-49151000D02*
X184511564Y-49151000D01*
%TO.C,F1*%
X183662252Y-43040000D02*
X180889748Y-43040000D01*
X183662252Y-46460000D02*
X180889748Y-46460000D01*
%TO.C,C12*%
X173540000Y-68870252D02*
X173540000Y-68347748D01*
X175010000Y-68870252D02*
X175010000Y-68347748D01*
%TO.C,C11*%
X172724000Y-68347748D02*
X172724000Y-68870252D01*
X171254000Y-68347748D02*
X171254000Y-68870252D01*
%TO.C,C2*%
X170726252Y-53650000D02*
X170203748Y-53650000D01*
X170726252Y-55120000D02*
X170203748Y-55120000D01*
D11*
X196995666Y-116845142D02*
X197043285Y-116892761D01*
X197186142Y-116940380D01*
X197281380Y-116940380D01*
X197424238Y-116892761D01*
X197519476Y-116797523D01*
X197567095Y-116702285D01*
X197614714Y-116511809D01*
X197614714Y-116368952D01*
X197567095Y-116178476D01*
X197519476Y-116083238D01*
X197424238Y-115988000D01*
X197281380Y-115940380D01*
X197186142Y-115940380D01*
X197043285Y-115988000D01*
X196995666Y-116035619D01*
X196614714Y-116035619D02*
X196567095Y-115988000D01*
X196471857Y-115940380D01*
X196233761Y-115940380D01*
X196138523Y-115988000D01*
X196090904Y-116035619D01*
X196043285Y-116130857D01*
X196043285Y-116226095D01*
X196090904Y-116368952D01*
X196662333Y-116940380D01*
X196043285Y-116940380D01*
X165295666Y-116845142D02*
X165343285Y-116892761D01*
X165486142Y-116940380D01*
X165581380Y-116940380D01*
X165724238Y-116892761D01*
X165819476Y-116797523D01*
X165867095Y-116702285D01*
X165914714Y-116511809D01*
X165914714Y-116368952D01*
X165867095Y-116178476D01*
X165819476Y-116083238D01*
X165724238Y-115988000D01*
X165581380Y-115940380D01*
X165486142Y-115940380D01*
X165343285Y-115988000D01*
X165295666Y-116035619D01*
X164914714Y-116035619D02*
X164867095Y-115988000D01*
X164771857Y-115940380D01*
X164533761Y-115940380D01*
X164438523Y-115988000D01*
X164390904Y-116035619D01*
X164343285Y-116130857D01*
X164343285Y-116226095D01*
X164390904Y-116368952D01*
X164962333Y-116940380D01*
X164343285Y-116940380D01*
%TO.C,C11*%
X192868142Y-98446142D02*
X192915761Y-98398523D01*
X192963380Y-98255666D01*
X192963380Y-98160428D01*
X192915761Y-98017571D01*
X192820523Y-97922333D01*
X192725285Y-97874714D01*
X192534809Y-97827095D01*
X192391952Y-97827095D01*
X192201476Y-97874714D01*
X192106238Y-97922333D01*
X192011000Y-98017571D01*
X191963380Y-98160428D01*
X191963380Y-98255666D01*
X192011000Y-98398523D01*
X192058619Y-98446142D01*
X192963380Y-99398523D02*
X192963380Y-98827095D01*
X192963380Y-99112809D02*
X191963380Y-99112809D01*
X192106238Y-99017571D01*
X192201476Y-98922333D01*
X192249095Y-98827095D01*
X192963380Y-100350904D02*
X192963380Y-99779476D01*
X192963380Y-100065190D02*
X191963380Y-100065190D01*
X192106238Y-99969952D01*
X192201476Y-99874714D01*
X192249095Y-99779476D01*
%TO.C,C1*%
X184453666Y-110307142D02*
X184501285Y-110354761D01*
X184644142Y-110402380D01*
X184739380Y-110402380D01*
X184882238Y-110354761D01*
X184977476Y-110259523D01*
X185025095Y-110164285D01*
X185072714Y-109973809D01*
X185072714Y-109830952D01*
X185025095Y-109640476D01*
X184977476Y-109545238D01*
X184882238Y-109450000D01*
X184739380Y-109402380D01*
X184644142Y-109402380D01*
X184501285Y-109450000D01*
X184453666Y-109497619D01*
X183501285Y-110402380D02*
X184072714Y-110402380D01*
X183787000Y-110402380D02*
X183787000Y-109402380D01*
X183882238Y-109545238D01*
X183977476Y-109640476D01*
X184072714Y-109688095D01*
X152753666Y-110307142D02*
X152801285Y-110354761D01*
X152944142Y-110402380D01*
X153039380Y-110402380D01*
X153182238Y-110354761D01*
X153277476Y-110259523D01*
X153325095Y-110164285D01*
X153372714Y-109973809D01*
X153372714Y-109830952D01*
X153325095Y-109640476D01*
X153277476Y-109545238D01*
X153182238Y-109450000D01*
X153039380Y-109402380D01*
X152944142Y-109402380D01*
X152801285Y-109450000D01*
X152753666Y-109497619D01*
X151801285Y-110402380D02*
X152372714Y-110402380D01*
X152087000Y-110402380D02*
X152087000Y-109402380D01*
X152182238Y-109545238D01*
X152277476Y-109640476D01*
X152372714Y-109688095D01*
%TO.C,R2*%
X184295666Y-121513380D02*
X184629000Y-121037190D01*
X184867095Y-121513380D02*
X184867095Y-120513380D01*
X184486142Y-120513380D01*
X184390904Y-120561000D01*
X184343285Y-120608619D01*
X184295666Y-120703857D01*
X184295666Y-120846714D01*
X184343285Y-120941952D01*
X184390904Y-120989571D01*
X184486142Y-121037190D01*
X184867095Y-121037190D01*
X183914714Y-120608619D02*
X183867095Y-120561000D01*
X183771857Y-120513380D01*
X183533761Y-120513380D01*
X183438523Y-120561000D01*
X183390904Y-120608619D01*
X183343285Y-120703857D01*
X183343285Y-120799095D01*
X183390904Y-120941952D01*
X183962333Y-121513380D01*
X183343285Y-121513380D01*
%TO.C,R9*%
X185184666Y-112622380D02*
X185518000Y-112146190D01*
X185756095Y-112622380D02*
X185756095Y-111622380D01*
X185375142Y-111622380D01*
X185279904Y-111670000D01*
X185232285Y-111717619D01*
X185184666Y-111812857D01*
X185184666Y-111955714D01*
X185232285Y-112050952D01*
X185279904Y-112098571D01*
X185375142Y-112146190D01*
X185756095Y-112146190D01*
X184708476Y-112622380D02*
X184518000Y-112622380D01*
X184422761Y-112574761D01*
X184375142Y-112527142D01*
X184279904Y-112384285D01*
X184232285Y-112193809D01*
X184232285Y-111812857D01*
X184279904Y-111717619D01*
X184327523Y-111670000D01*
X184422761Y-111622380D01*
X184613238Y-111622380D01*
X184708476Y-111670000D01*
X184756095Y-111717619D01*
X184803714Y-111812857D01*
X184803714Y-112050952D01*
X184756095Y-112146190D01*
X184708476Y-112193809D01*
X184613238Y-112241428D01*
X184422761Y-112241428D01*
X184327523Y-112193809D01*
X184279904Y-112146190D01*
X184232285Y-112050952D01*
%TO.C,F1*%
X182557333Y-126178571D02*
X182890666Y-126178571D01*
X182890666Y-126702380D02*
X182890666Y-125702380D01*
X182414476Y-125702380D01*
X181509714Y-126702380D02*
X182081142Y-126702380D01*
X181795428Y-126702380D02*
X181795428Y-125702380D01*
X181890666Y-125845238D01*
X181985904Y-125940476D01*
X182081142Y-125988095D01*
X150857333Y-126178571D02*
X151190666Y-126178571D01*
X151190666Y-126702380D02*
X151190666Y-125702380D01*
X150714476Y-125702380D01*
X149809714Y-126702380D02*
X150381142Y-126702380D01*
X150095428Y-126702380D02*
X150095428Y-125702380D01*
X150190666Y-125845238D01*
X150285904Y-125940476D01*
X150381142Y-125988095D01*
%TO.C,C11*%
X161168142Y-98446142D02*
X161215761Y-98398523D01*
X161263380Y-98255666D01*
X161263380Y-98160428D01*
X161215761Y-98017571D01*
X161120523Y-97922333D01*
X161025285Y-97874714D01*
X160834809Y-97827095D01*
X160691952Y-97827095D01*
X160501476Y-97874714D01*
X160406238Y-97922333D01*
X160311000Y-98017571D01*
X160263380Y-98160428D01*
X160263380Y-98255666D01*
X160311000Y-98398523D01*
X160358619Y-98446142D01*
X161263380Y-99398523D02*
X161263380Y-98827095D01*
X161263380Y-99112809D02*
X160263380Y-99112809D01*
X160406238Y-99017571D01*
X160501476Y-98922333D01*
X160549095Y-98827095D01*
X161263380Y-100350904D02*
X161263380Y-99779476D01*
X161263380Y-100065190D02*
X160263380Y-100065190D01*
X160406238Y-99969952D01*
X160501476Y-99874714D01*
X160549095Y-99779476D01*
%TO.C,R8*%
X153357666Y-114654380D02*
X153691000Y-114178190D01*
X153929095Y-114654380D02*
X153929095Y-113654380D01*
X153548142Y-113654380D01*
X153452904Y-113702000D01*
X153405285Y-113749619D01*
X153357666Y-113844857D01*
X153357666Y-113987714D01*
X153405285Y-114082952D01*
X153452904Y-114130571D01*
X153548142Y-114178190D01*
X153929095Y-114178190D01*
X152786238Y-114082952D02*
X152881476Y-114035333D01*
X152929095Y-113987714D01*
X152976714Y-113892476D01*
X152976714Y-113844857D01*
X152929095Y-113749619D01*
X152881476Y-113702000D01*
X152786238Y-113654380D01*
X152595761Y-113654380D01*
X152500523Y-113702000D01*
X152452904Y-113749619D01*
X152405285Y-113844857D01*
X152405285Y-113892476D01*
X152452904Y-113987714D01*
X152500523Y-114035333D01*
X152595761Y-114082952D01*
X152786238Y-114082952D01*
X152881476Y-114130571D01*
X152929095Y-114178190D01*
X152976714Y-114273428D01*
X152976714Y-114463904D01*
X152929095Y-114559142D01*
X152881476Y-114606761D01*
X152786238Y-114654380D01*
X152595761Y-114654380D01*
X152500523Y-114606761D01*
X152452904Y-114559142D01*
X152405285Y-114463904D01*
X152405285Y-114273428D01*
X152452904Y-114178190D01*
X152500523Y-114130571D01*
X152595761Y-114082952D01*
X185057666Y-114654380D02*
X185391000Y-114178190D01*
X185629095Y-114654380D02*
X185629095Y-113654380D01*
X185248142Y-113654380D01*
X185152904Y-113702000D01*
X185105285Y-113749619D01*
X185057666Y-113844857D01*
X185057666Y-113987714D01*
X185105285Y-114082952D01*
X185152904Y-114130571D01*
X185248142Y-114178190D01*
X185629095Y-114178190D01*
X184486238Y-114082952D02*
X184581476Y-114035333D01*
X184629095Y-113987714D01*
X184676714Y-113892476D01*
X184676714Y-113844857D01*
X184629095Y-113749619D01*
X184581476Y-113702000D01*
X184486238Y-113654380D01*
X184295761Y-113654380D01*
X184200523Y-113702000D01*
X184152904Y-113749619D01*
X184105285Y-113844857D01*
X184105285Y-113892476D01*
X184152904Y-113987714D01*
X184200523Y-114035333D01*
X184295761Y-114082952D01*
X184486238Y-114082952D01*
X184581476Y-114130571D01*
X184629095Y-114178190D01*
X184676714Y-114273428D01*
X184676714Y-114463904D01*
X184629095Y-114559142D01*
X184581476Y-114606761D01*
X184486238Y-114654380D01*
X184295761Y-114654380D01*
X184200523Y-114606761D01*
X184152904Y-114559142D01*
X184105285Y-114463904D01*
X184105285Y-114273428D01*
X184152904Y-114178190D01*
X184200523Y-114130571D01*
X184295761Y-114082952D01*
%TO.C,R9*%
X153484666Y-112622380D02*
X153818000Y-112146190D01*
X154056095Y-112622380D02*
X154056095Y-111622380D01*
X153675142Y-111622380D01*
X153579904Y-111670000D01*
X153532285Y-111717619D01*
X153484666Y-111812857D01*
X153484666Y-111955714D01*
X153532285Y-112050952D01*
X153579904Y-112098571D01*
X153675142Y-112146190D01*
X154056095Y-112146190D01*
X153008476Y-112622380D02*
X152818000Y-112622380D01*
X152722761Y-112574761D01*
X152675142Y-112527142D01*
X152579904Y-112384285D01*
X152532285Y-112193809D01*
X152532285Y-111812857D01*
X152579904Y-111717619D01*
X152627523Y-111670000D01*
X152722761Y-111622380D01*
X152913238Y-111622380D01*
X153008476Y-111670000D01*
X153056095Y-111717619D01*
X153103714Y-111812857D01*
X153103714Y-112050952D01*
X153056095Y-112146190D01*
X153008476Y-112193809D01*
X152913238Y-112241428D01*
X152722761Y-112241428D01*
X152627523Y-112193809D01*
X152579904Y-112146190D01*
X152532285Y-112050952D01*
%TO.C,C2*%
X133595666Y-116845142D02*
X133643285Y-116892761D01*
X133786142Y-116940380D01*
X133881380Y-116940380D01*
X134024238Y-116892761D01*
X134119476Y-116797523D01*
X134167095Y-116702285D01*
X134214714Y-116511809D01*
X134214714Y-116368952D01*
X134167095Y-116178476D01*
X134119476Y-116083238D01*
X134024238Y-115988000D01*
X133881380Y-115940380D01*
X133786142Y-115940380D01*
X133643285Y-115988000D01*
X133595666Y-116035619D01*
X133214714Y-116035619D02*
X133167095Y-115988000D01*
X133071857Y-115940380D01*
X132833761Y-115940380D01*
X132738523Y-115988000D01*
X132690904Y-116035619D01*
X132643285Y-116130857D01*
X132643285Y-116226095D01*
X132690904Y-116368952D01*
X133262333Y-116940380D01*
X132643285Y-116940380D01*
%TO.C,R2*%
X152595666Y-121513380D02*
X152929000Y-121037190D01*
X153167095Y-121513380D02*
X153167095Y-120513380D01*
X152786142Y-120513380D01*
X152690904Y-120561000D01*
X152643285Y-120608619D01*
X152595666Y-120703857D01*
X152595666Y-120846714D01*
X152643285Y-120941952D01*
X152690904Y-120989571D01*
X152786142Y-121037190D01*
X153167095Y-121037190D01*
X152214714Y-120608619D02*
X152167095Y-120561000D01*
X152071857Y-120513380D01*
X151833761Y-120513380D01*
X151738523Y-120561000D01*
X151690904Y-120608619D01*
X151643285Y-120703857D01*
X151643285Y-120799095D01*
X151690904Y-120941952D01*
X152262333Y-121513380D01*
X151643285Y-121513380D01*
%TO.C,C1*%
X121053666Y-110307142D02*
X121101285Y-110354761D01*
X121244142Y-110402380D01*
X121339380Y-110402380D01*
X121482238Y-110354761D01*
X121577476Y-110259523D01*
X121625095Y-110164285D01*
X121672714Y-109973809D01*
X121672714Y-109830952D01*
X121625095Y-109640476D01*
X121577476Y-109545238D01*
X121482238Y-109450000D01*
X121339380Y-109402380D01*
X121244142Y-109402380D01*
X121101285Y-109450000D01*
X121053666Y-109497619D01*
X120101285Y-110402380D02*
X120672714Y-110402380D01*
X120387000Y-110402380D02*
X120387000Y-109402380D01*
X120482238Y-109545238D01*
X120577476Y-109640476D01*
X120672714Y-109688095D01*
%TO.C,R8*%
X121657666Y-114654380D02*
X121991000Y-114178190D01*
X122229095Y-114654380D02*
X122229095Y-113654380D01*
X121848142Y-113654380D01*
X121752904Y-113702000D01*
X121705285Y-113749619D01*
X121657666Y-113844857D01*
X121657666Y-113987714D01*
X121705285Y-114082952D01*
X121752904Y-114130571D01*
X121848142Y-114178190D01*
X122229095Y-114178190D01*
X121086238Y-114082952D02*
X121181476Y-114035333D01*
X121229095Y-113987714D01*
X121276714Y-113892476D01*
X121276714Y-113844857D01*
X121229095Y-113749619D01*
X121181476Y-113702000D01*
X121086238Y-113654380D01*
X120895761Y-113654380D01*
X120800523Y-113702000D01*
X120752904Y-113749619D01*
X120705285Y-113844857D01*
X120705285Y-113892476D01*
X120752904Y-113987714D01*
X120800523Y-114035333D01*
X120895761Y-114082952D01*
X121086238Y-114082952D01*
X121181476Y-114130571D01*
X121229095Y-114178190D01*
X121276714Y-114273428D01*
X121276714Y-114463904D01*
X121229095Y-114559142D01*
X121181476Y-114606761D01*
X121086238Y-114654380D01*
X120895761Y-114654380D01*
X120800523Y-114606761D01*
X120752904Y-114559142D01*
X120705285Y-114463904D01*
X120705285Y-114273428D01*
X120752904Y-114178190D01*
X120800523Y-114130571D01*
X120895761Y-114082952D01*
%TO.C,R9*%
X121784666Y-112622380D02*
X122118000Y-112146190D01*
X122356095Y-112622380D02*
X122356095Y-111622380D01*
X121975142Y-111622380D01*
X121879904Y-111670000D01*
X121832285Y-111717619D01*
X121784666Y-111812857D01*
X121784666Y-111955714D01*
X121832285Y-112050952D01*
X121879904Y-112098571D01*
X121975142Y-112146190D01*
X122356095Y-112146190D01*
X121308476Y-112622380D02*
X121118000Y-112622380D01*
X121022761Y-112574761D01*
X120975142Y-112527142D01*
X120879904Y-112384285D01*
X120832285Y-112193809D01*
X120832285Y-111812857D01*
X120879904Y-111717619D01*
X120927523Y-111670000D01*
X121022761Y-111622380D01*
X121213238Y-111622380D01*
X121308476Y-111670000D01*
X121356095Y-111717619D01*
X121403714Y-111812857D01*
X121403714Y-112050952D01*
X121356095Y-112146190D01*
X121308476Y-112193809D01*
X121213238Y-112241428D01*
X121022761Y-112241428D01*
X120927523Y-112193809D01*
X120879904Y-112146190D01*
X120832285Y-112050952D01*
%TO.C,C11*%
X129468142Y-98446142D02*
X129515761Y-98398523D01*
X129563380Y-98255666D01*
X129563380Y-98160428D01*
X129515761Y-98017571D01*
X129420523Y-97922333D01*
X129325285Y-97874714D01*
X129134809Y-97827095D01*
X128991952Y-97827095D01*
X128801476Y-97874714D01*
X128706238Y-97922333D01*
X128611000Y-98017571D01*
X128563380Y-98160428D01*
X128563380Y-98255666D01*
X128611000Y-98398523D01*
X128658619Y-98446142D01*
X129563380Y-99398523D02*
X129563380Y-98827095D01*
X129563380Y-99112809D02*
X128563380Y-99112809D01*
X128706238Y-99017571D01*
X128801476Y-98922333D01*
X128849095Y-98827095D01*
X129563380Y-100350904D02*
X129563380Y-99779476D01*
X129563380Y-100065190D02*
X128563380Y-100065190D01*
X128706238Y-99969952D01*
X128801476Y-99874714D01*
X128849095Y-99779476D01*
%TO.C,F1*%
X119157333Y-126178571D02*
X119490666Y-126178571D01*
X119490666Y-126702380D02*
X119490666Y-125702380D01*
X119014476Y-125702380D01*
X118109714Y-126702380D02*
X118681142Y-126702380D01*
X118395428Y-126702380D02*
X118395428Y-125702380D01*
X118490666Y-125845238D01*
X118585904Y-125940476D01*
X118681142Y-125988095D01*
%TO.C,R2*%
X120895666Y-121513380D02*
X121229000Y-121037190D01*
X121467095Y-121513380D02*
X121467095Y-120513380D01*
X121086142Y-120513380D01*
X120990904Y-120561000D01*
X120943285Y-120608619D01*
X120895666Y-120703857D01*
X120895666Y-120846714D01*
X120943285Y-120941952D01*
X120990904Y-120989571D01*
X121086142Y-121037190D01*
X121467095Y-121037190D01*
X120514714Y-120608619D02*
X120467095Y-120561000D01*
X120371857Y-120513380D01*
X120133761Y-120513380D01*
X120038523Y-120561000D01*
X119990904Y-120608619D01*
X119943285Y-120703857D01*
X119943285Y-120799095D01*
X119990904Y-120941952D01*
X120562333Y-121513380D01*
X119943285Y-121513380D01*
%TO.C,R1*%
X116982166Y-121386380D02*
X117315500Y-120910190D01*
X117553595Y-121386380D02*
X117553595Y-120386380D01*
X117172642Y-120386380D01*
X117077404Y-120434000D01*
X117029785Y-120481619D01*
X116982166Y-120576857D01*
X116982166Y-120719714D01*
X117029785Y-120814952D01*
X117077404Y-120862571D01*
X117172642Y-120910190D01*
X117553595Y-120910190D01*
X116029785Y-121386380D02*
X116601214Y-121386380D01*
X116315500Y-121386380D02*
X116315500Y-120386380D01*
X116410738Y-120529238D01*
X116505976Y-120624476D01*
X116601214Y-120672095D01*
%TO.C,R3*%
X127245666Y-120876380D02*
X127579000Y-120400190D01*
X127817095Y-120876380D02*
X127817095Y-119876380D01*
X127436142Y-119876380D01*
X127340904Y-119924000D01*
X127293285Y-119971619D01*
X127245666Y-120066857D01*
X127245666Y-120209714D01*
X127293285Y-120304952D01*
X127340904Y-120352571D01*
X127436142Y-120400190D01*
X127817095Y-120400190D01*
X126912333Y-119876380D02*
X126293285Y-119876380D01*
X126626619Y-120257333D01*
X126483761Y-120257333D01*
X126388523Y-120304952D01*
X126340904Y-120352571D01*
X126293285Y-120447809D01*
X126293285Y-120685904D01*
X126340904Y-120781142D01*
X126388523Y-120828761D01*
X126483761Y-120876380D01*
X126769476Y-120876380D01*
X126864714Y-120828761D01*
X126912333Y-120781142D01*
%TO.C,R4*%
X133595666Y-118845380D02*
X133929000Y-118369190D01*
X134167095Y-118845380D02*
X134167095Y-117845380D01*
X133786142Y-117845380D01*
X133690904Y-117893000D01*
X133643285Y-117940619D01*
X133595666Y-118035857D01*
X133595666Y-118178714D01*
X133643285Y-118273952D01*
X133690904Y-118321571D01*
X133786142Y-118369190D01*
X134167095Y-118369190D01*
X132738523Y-118178714D02*
X132738523Y-118845380D01*
X132976619Y-117797761D02*
X133214714Y-118512047D01*
X132595666Y-118512047D01*
%TO.C,U1*%
X130126904Y-109717380D02*
X130126904Y-110526904D01*
X130079285Y-110622142D01*
X130031666Y-110669761D01*
X129936428Y-110717380D01*
X129745952Y-110717380D01*
X129650714Y-110669761D01*
X129603095Y-110622142D01*
X129555476Y-110526904D01*
X129555476Y-109717380D01*
X128555476Y-110717380D02*
X129126904Y-110717380D01*
X128841190Y-110717380D02*
X128841190Y-109717380D01*
X128936428Y-109860238D01*
X129031666Y-109955476D01*
X129126904Y-110003095D01*
%TO.C,C12*%
X127182142Y-98319142D02*
X127229761Y-98271523D01*
X127277380Y-98128666D01*
X127277380Y-98033428D01*
X127229761Y-97890571D01*
X127134523Y-97795333D01*
X127039285Y-97747714D01*
X126848809Y-97700095D01*
X126705952Y-97700095D01*
X126515476Y-97747714D01*
X126420238Y-97795333D01*
X126325000Y-97890571D01*
X126277380Y-98033428D01*
X126277380Y-98128666D01*
X126325000Y-98271523D01*
X126372619Y-98319142D01*
X127277380Y-99271523D02*
X127277380Y-98700095D01*
X127277380Y-98985809D02*
X126277380Y-98985809D01*
X126420238Y-98890571D01*
X126515476Y-98795333D01*
X126563095Y-98700095D01*
X126372619Y-99652476D02*
X126325000Y-99700095D01*
X126277380Y-99795333D01*
X126277380Y-100033428D01*
X126325000Y-100128666D01*
X126372619Y-100176285D01*
X126467857Y-100223904D01*
X126563095Y-100223904D01*
X126705952Y-100176285D01*
X127277380Y-99604857D01*
X127277380Y-100223904D01*
%TO.C,R4*%
X196995666Y-118845380D02*
X197329000Y-118369190D01*
X197567095Y-118845380D02*
X197567095Y-117845380D01*
X197186142Y-117845380D01*
X197090904Y-117893000D01*
X197043285Y-117940619D01*
X196995666Y-118035857D01*
X196995666Y-118178714D01*
X197043285Y-118273952D01*
X197090904Y-118321571D01*
X197186142Y-118369190D01*
X197567095Y-118369190D01*
X196138523Y-118178714D02*
X196138523Y-118845380D01*
X196376619Y-117797761D02*
X196614714Y-118512047D01*
X195995666Y-118512047D01*
X165295666Y-118845380D02*
X165629000Y-118369190D01*
X165867095Y-118845380D02*
X165867095Y-117845380D01*
X165486142Y-117845380D01*
X165390904Y-117893000D01*
X165343285Y-117940619D01*
X165295666Y-118035857D01*
X165295666Y-118178714D01*
X165343285Y-118273952D01*
X165390904Y-118321571D01*
X165486142Y-118369190D01*
X165867095Y-118369190D01*
X164438523Y-118178714D02*
X164438523Y-118845380D01*
X164676619Y-117797761D02*
X164914714Y-118512047D01*
X164295666Y-118512047D01*
%TO.C,R1*%
X148682166Y-121386380D02*
X149015500Y-120910190D01*
X149253595Y-121386380D02*
X149253595Y-120386380D01*
X148872642Y-120386380D01*
X148777404Y-120434000D01*
X148729785Y-120481619D01*
X148682166Y-120576857D01*
X148682166Y-120719714D01*
X148729785Y-120814952D01*
X148777404Y-120862571D01*
X148872642Y-120910190D01*
X149253595Y-120910190D01*
X147729785Y-121386380D02*
X148301214Y-121386380D01*
X148015500Y-121386380D02*
X148015500Y-120386380D01*
X148110738Y-120529238D01*
X148205976Y-120624476D01*
X148301214Y-120672095D01*
%TO.C,C12*%
X190582142Y-98319142D02*
X190629761Y-98271523D01*
X190677380Y-98128666D01*
X190677380Y-98033428D01*
X190629761Y-97890571D01*
X190534523Y-97795333D01*
X190439285Y-97747714D01*
X190248809Y-97700095D01*
X190105952Y-97700095D01*
X189915476Y-97747714D01*
X189820238Y-97795333D01*
X189725000Y-97890571D01*
X189677380Y-98033428D01*
X189677380Y-98128666D01*
X189725000Y-98271523D01*
X189772619Y-98319142D01*
X190677380Y-99271523D02*
X190677380Y-98700095D01*
X190677380Y-98985809D02*
X189677380Y-98985809D01*
X189820238Y-98890571D01*
X189915476Y-98795333D01*
X189963095Y-98700095D01*
X189772619Y-99652476D02*
X189725000Y-99700095D01*
X189677380Y-99795333D01*
X189677380Y-100033428D01*
X189725000Y-100128666D01*
X189772619Y-100176285D01*
X189867857Y-100223904D01*
X189963095Y-100223904D01*
X190105952Y-100176285D01*
X190677380Y-99604857D01*
X190677380Y-100223904D01*
%TO.C,R1*%
X180382166Y-121386380D02*
X180715500Y-120910190D01*
X180953595Y-121386380D02*
X180953595Y-120386380D01*
X180572642Y-120386380D01*
X180477404Y-120434000D01*
X180429785Y-120481619D01*
X180382166Y-120576857D01*
X180382166Y-120719714D01*
X180429785Y-120814952D01*
X180477404Y-120862571D01*
X180572642Y-120910190D01*
X180953595Y-120910190D01*
X179429785Y-121386380D02*
X180001214Y-121386380D01*
X179715500Y-121386380D02*
X179715500Y-120386380D01*
X179810738Y-120529238D01*
X179905976Y-120624476D01*
X180001214Y-120672095D01*
%TO.C,R3*%
X190645666Y-120876380D02*
X190979000Y-120400190D01*
X191217095Y-120876380D02*
X191217095Y-119876380D01*
X190836142Y-119876380D01*
X190740904Y-119924000D01*
X190693285Y-119971619D01*
X190645666Y-120066857D01*
X190645666Y-120209714D01*
X190693285Y-120304952D01*
X190740904Y-120352571D01*
X190836142Y-120400190D01*
X191217095Y-120400190D01*
X190312333Y-119876380D02*
X189693285Y-119876380D01*
X190026619Y-120257333D01*
X189883761Y-120257333D01*
X189788523Y-120304952D01*
X189740904Y-120352571D01*
X189693285Y-120447809D01*
X189693285Y-120685904D01*
X189740904Y-120781142D01*
X189788523Y-120828761D01*
X189883761Y-120876380D01*
X190169476Y-120876380D01*
X190264714Y-120828761D01*
X190312333Y-120781142D01*
%TO.C,U1*%
X193526904Y-109717380D02*
X193526904Y-110526904D01*
X193479285Y-110622142D01*
X193431666Y-110669761D01*
X193336428Y-110717380D01*
X193145952Y-110717380D01*
X193050714Y-110669761D01*
X193003095Y-110622142D01*
X192955476Y-110526904D01*
X192955476Y-109717380D01*
X191955476Y-110717380D02*
X192526904Y-110717380D01*
X192241190Y-110717380D02*
X192241190Y-109717380D01*
X192336428Y-109860238D01*
X192431666Y-109955476D01*
X192526904Y-110003095D01*
X161826904Y-109717380D02*
X161826904Y-110526904D01*
X161779285Y-110622142D01*
X161731666Y-110669761D01*
X161636428Y-110717380D01*
X161445952Y-110717380D01*
X161350714Y-110669761D01*
X161303095Y-110622142D01*
X161255476Y-110526904D01*
X161255476Y-109717380D01*
X160255476Y-110717380D02*
X160826904Y-110717380D01*
X160541190Y-110717380D02*
X160541190Y-109717380D01*
X160636428Y-109860238D01*
X160731666Y-109955476D01*
X160826904Y-110003095D01*
%TO.C,R3*%
X158945666Y-120876380D02*
X159279000Y-120400190D01*
X159517095Y-120876380D02*
X159517095Y-119876380D01*
X159136142Y-119876380D01*
X159040904Y-119924000D01*
X158993285Y-119971619D01*
X158945666Y-120066857D01*
X158945666Y-120209714D01*
X158993285Y-120304952D01*
X159040904Y-120352571D01*
X159136142Y-120400190D01*
X159517095Y-120400190D01*
X158612333Y-119876380D02*
X157993285Y-119876380D01*
X158326619Y-120257333D01*
X158183761Y-120257333D01*
X158088523Y-120304952D01*
X158040904Y-120352571D01*
X157993285Y-120447809D01*
X157993285Y-120685904D01*
X158040904Y-120781142D01*
X158088523Y-120828761D01*
X158183761Y-120876380D01*
X158469476Y-120876380D01*
X158564714Y-120828761D01*
X158612333Y-120781142D01*
%TO.C,C12*%
X158882142Y-98319142D02*
X158929761Y-98271523D01*
X158977380Y-98128666D01*
X158977380Y-98033428D01*
X158929761Y-97890571D01*
X158834523Y-97795333D01*
X158739285Y-97747714D01*
X158548809Y-97700095D01*
X158405952Y-97700095D01*
X158215476Y-97747714D01*
X158120238Y-97795333D01*
X158025000Y-97890571D01*
X157977380Y-98033428D01*
X157977380Y-98128666D01*
X158025000Y-98271523D01*
X158072619Y-98319142D01*
X158977380Y-99271523D02*
X158977380Y-98700095D01*
X158977380Y-98985809D02*
X157977380Y-98985809D01*
X158120238Y-98890571D01*
X158215476Y-98795333D01*
X158263095Y-98700095D01*
X158072619Y-99652476D02*
X158025000Y-99700095D01*
X157977380Y-99795333D01*
X157977380Y-100033428D01*
X158025000Y-100128666D01*
X158072619Y-100176285D01*
X158167857Y-100223904D01*
X158263095Y-100223904D01*
X158405952Y-100176285D01*
X158977380Y-99604857D01*
X158977380Y-100223904D01*
%TO.C,C2*%
X104437666Y-54869142D02*
X104485285Y-54916761D01*
X104628142Y-54964380D01*
X104723380Y-54964380D01*
X104866238Y-54916761D01*
X104961476Y-54821523D01*
X105009095Y-54726285D01*
X105056714Y-54535809D01*
X105056714Y-54392952D01*
X105009095Y-54202476D01*
X104961476Y-54107238D01*
X104866238Y-54012000D01*
X104723380Y-53964380D01*
X104628142Y-53964380D01*
X104485285Y-54012000D01*
X104437666Y-54059619D01*
X104056714Y-54059619D02*
X104009095Y-54012000D01*
X103913857Y-53964380D01*
X103675761Y-53964380D01*
X103580523Y-54012000D01*
X103532904Y-54059619D01*
X103485285Y-54154857D01*
X103485285Y-54250095D01*
X103532904Y-54392952D01*
X104104333Y-54964380D01*
X103485285Y-54964380D01*
X136137666Y-54869142D02*
X136185285Y-54916761D01*
X136328142Y-54964380D01*
X136423380Y-54964380D01*
X136566238Y-54916761D01*
X136661476Y-54821523D01*
X136709095Y-54726285D01*
X136756714Y-54535809D01*
X136756714Y-54392952D01*
X136709095Y-54202476D01*
X136661476Y-54107238D01*
X136566238Y-54012000D01*
X136423380Y-53964380D01*
X136328142Y-53964380D01*
X136185285Y-54012000D01*
X136137666Y-54059619D01*
X135756714Y-54059619D02*
X135709095Y-54012000D01*
X135613857Y-53964380D01*
X135375761Y-53964380D01*
X135280523Y-54012000D01*
X135232904Y-54059619D01*
X135185285Y-54154857D01*
X135185285Y-54250095D01*
X135232904Y-54392952D01*
X135804333Y-54964380D01*
X135185285Y-54964380D01*
%TO.C,C1*%
X116979666Y-61407142D02*
X117027285Y-61454761D01*
X117170142Y-61502380D01*
X117265380Y-61502380D01*
X117408238Y-61454761D01*
X117503476Y-61359523D01*
X117551095Y-61264285D01*
X117598714Y-61073809D01*
X117598714Y-60930952D01*
X117551095Y-60740476D01*
X117503476Y-60645238D01*
X117408238Y-60550000D01*
X117265380Y-60502380D01*
X117170142Y-60502380D01*
X117027285Y-60550000D01*
X116979666Y-60597619D01*
X116027285Y-61502380D02*
X116598714Y-61502380D01*
X116313000Y-61502380D02*
X116313000Y-60502380D01*
X116408238Y-60645238D01*
X116503476Y-60740476D01*
X116598714Y-60788095D01*
X148679666Y-61407142D02*
X148727285Y-61454761D01*
X148870142Y-61502380D01*
X148965380Y-61502380D01*
X149108238Y-61454761D01*
X149203476Y-61359523D01*
X149251095Y-61264285D01*
X149298714Y-61073809D01*
X149298714Y-60930952D01*
X149251095Y-60740476D01*
X149203476Y-60645238D01*
X149108238Y-60550000D01*
X148965380Y-60502380D01*
X148870142Y-60502380D01*
X148727285Y-60550000D01*
X148679666Y-60597619D01*
X147727285Y-61502380D02*
X148298714Y-61502380D01*
X148013000Y-61502380D02*
X148013000Y-60502380D01*
X148108238Y-60645238D01*
X148203476Y-60740476D01*
X148298714Y-60788095D01*
%TO.C,R8*%
X116375666Y-57250380D02*
X116709000Y-56774190D01*
X116947095Y-57250380D02*
X116947095Y-56250380D01*
X116566142Y-56250380D01*
X116470904Y-56298000D01*
X116423285Y-56345619D01*
X116375666Y-56440857D01*
X116375666Y-56583714D01*
X116423285Y-56678952D01*
X116470904Y-56726571D01*
X116566142Y-56774190D01*
X116947095Y-56774190D01*
X115804238Y-56678952D02*
X115899476Y-56631333D01*
X115947095Y-56583714D01*
X115994714Y-56488476D01*
X115994714Y-56440857D01*
X115947095Y-56345619D01*
X115899476Y-56298000D01*
X115804238Y-56250380D01*
X115613761Y-56250380D01*
X115518523Y-56298000D01*
X115470904Y-56345619D01*
X115423285Y-56440857D01*
X115423285Y-56488476D01*
X115470904Y-56583714D01*
X115518523Y-56631333D01*
X115613761Y-56678952D01*
X115804238Y-56678952D01*
X115899476Y-56726571D01*
X115947095Y-56774190D01*
X115994714Y-56869428D01*
X115994714Y-57059904D01*
X115947095Y-57155142D01*
X115899476Y-57202761D01*
X115804238Y-57250380D01*
X115613761Y-57250380D01*
X115518523Y-57202761D01*
X115470904Y-57155142D01*
X115423285Y-57059904D01*
X115423285Y-56869428D01*
X115470904Y-56774190D01*
X115518523Y-56726571D01*
X115613761Y-56678952D01*
X148075666Y-57250380D02*
X148409000Y-56774190D01*
X148647095Y-57250380D02*
X148647095Y-56250380D01*
X148266142Y-56250380D01*
X148170904Y-56298000D01*
X148123285Y-56345619D01*
X148075666Y-56440857D01*
X148075666Y-56583714D01*
X148123285Y-56678952D01*
X148170904Y-56726571D01*
X148266142Y-56774190D01*
X148647095Y-56774190D01*
X147504238Y-56678952D02*
X147599476Y-56631333D01*
X147647095Y-56583714D01*
X147694714Y-56488476D01*
X147694714Y-56440857D01*
X147647095Y-56345619D01*
X147599476Y-56298000D01*
X147504238Y-56250380D01*
X147313761Y-56250380D01*
X147218523Y-56298000D01*
X147170904Y-56345619D01*
X147123285Y-56440857D01*
X147123285Y-56488476D01*
X147170904Y-56583714D01*
X147218523Y-56631333D01*
X147313761Y-56678952D01*
X147504238Y-56678952D01*
X147599476Y-56726571D01*
X147647095Y-56774190D01*
X147694714Y-56869428D01*
X147694714Y-57059904D01*
X147647095Y-57155142D01*
X147599476Y-57202761D01*
X147504238Y-57250380D01*
X147313761Y-57250380D01*
X147218523Y-57202761D01*
X147170904Y-57155142D01*
X147123285Y-57059904D01*
X147123285Y-56869428D01*
X147170904Y-56774190D01*
X147218523Y-56726571D01*
X147313761Y-56678952D01*
%TO.C,R9*%
X116248666Y-59282380D02*
X116582000Y-58806190D01*
X116820095Y-59282380D02*
X116820095Y-58282380D01*
X116439142Y-58282380D01*
X116343904Y-58330000D01*
X116296285Y-58377619D01*
X116248666Y-58472857D01*
X116248666Y-58615714D01*
X116296285Y-58710952D01*
X116343904Y-58758571D01*
X116439142Y-58806190D01*
X116820095Y-58806190D01*
X115772476Y-59282380D02*
X115582000Y-59282380D01*
X115486761Y-59234761D01*
X115439142Y-59187142D01*
X115343904Y-59044285D01*
X115296285Y-58853809D01*
X115296285Y-58472857D01*
X115343904Y-58377619D01*
X115391523Y-58330000D01*
X115486761Y-58282380D01*
X115677238Y-58282380D01*
X115772476Y-58330000D01*
X115820095Y-58377619D01*
X115867714Y-58472857D01*
X115867714Y-58710952D01*
X115820095Y-58806190D01*
X115772476Y-58853809D01*
X115677238Y-58901428D01*
X115486761Y-58901428D01*
X115391523Y-58853809D01*
X115343904Y-58806190D01*
X115296285Y-58710952D01*
X147948666Y-59282380D02*
X148282000Y-58806190D01*
X148520095Y-59282380D02*
X148520095Y-58282380D01*
X148139142Y-58282380D01*
X148043904Y-58330000D01*
X147996285Y-58377619D01*
X147948666Y-58472857D01*
X147948666Y-58615714D01*
X147996285Y-58710952D01*
X148043904Y-58758571D01*
X148139142Y-58806190D01*
X148520095Y-58806190D01*
X147472476Y-59282380D02*
X147282000Y-59282380D01*
X147186761Y-59234761D01*
X147139142Y-59187142D01*
X147043904Y-59044285D01*
X146996285Y-58853809D01*
X146996285Y-58472857D01*
X147043904Y-58377619D01*
X147091523Y-58330000D01*
X147186761Y-58282380D01*
X147377238Y-58282380D01*
X147472476Y-58330000D01*
X147520095Y-58377619D01*
X147567714Y-58472857D01*
X147567714Y-58710952D01*
X147520095Y-58806190D01*
X147472476Y-58853809D01*
X147377238Y-58901428D01*
X147186761Y-58901428D01*
X147091523Y-58853809D01*
X147043904Y-58806190D01*
X146996285Y-58710952D01*
%TO.C,C11*%
X108946142Y-71268142D02*
X108993761Y-71220523D01*
X109041380Y-71077666D01*
X109041380Y-70982428D01*
X108993761Y-70839571D01*
X108898523Y-70744333D01*
X108803285Y-70696714D01*
X108612809Y-70649095D01*
X108469952Y-70649095D01*
X108279476Y-70696714D01*
X108184238Y-70744333D01*
X108089000Y-70839571D01*
X108041380Y-70982428D01*
X108041380Y-71077666D01*
X108089000Y-71220523D01*
X108136619Y-71268142D01*
X109041380Y-72220523D02*
X109041380Y-71649095D01*
X109041380Y-71934809D02*
X108041380Y-71934809D01*
X108184238Y-71839571D01*
X108279476Y-71744333D01*
X108327095Y-71649095D01*
X109041380Y-73172904D02*
X109041380Y-72601476D01*
X109041380Y-72887190D02*
X108041380Y-72887190D01*
X108184238Y-72791952D01*
X108279476Y-72696714D01*
X108327095Y-72601476D01*
X140646142Y-71268142D02*
X140693761Y-71220523D01*
X140741380Y-71077666D01*
X140741380Y-70982428D01*
X140693761Y-70839571D01*
X140598523Y-70744333D01*
X140503285Y-70696714D01*
X140312809Y-70649095D01*
X140169952Y-70649095D01*
X139979476Y-70696714D01*
X139884238Y-70744333D01*
X139789000Y-70839571D01*
X139741380Y-70982428D01*
X139741380Y-71077666D01*
X139789000Y-71220523D01*
X139836619Y-71268142D01*
X140741380Y-72220523D02*
X140741380Y-71649095D01*
X140741380Y-71934809D02*
X139741380Y-71934809D01*
X139884238Y-71839571D01*
X139979476Y-71744333D01*
X140027095Y-71649095D01*
X140741380Y-73172904D02*
X140741380Y-72601476D01*
X140741380Y-72887190D02*
X139741380Y-72887190D01*
X139884238Y-72791952D01*
X139979476Y-72696714D01*
X140027095Y-72601476D01*
%TO.C,F1*%
X119209333Y-44678571D02*
X119542666Y-44678571D01*
X119542666Y-45202380D02*
X119542666Y-44202380D01*
X119066476Y-44202380D01*
X118161714Y-45202380D02*
X118733142Y-45202380D01*
X118447428Y-45202380D02*
X118447428Y-44202380D01*
X118542666Y-44345238D01*
X118637904Y-44440476D01*
X118733142Y-44488095D01*
X150909333Y-44678571D02*
X151242666Y-44678571D01*
X151242666Y-45202380D02*
X151242666Y-44202380D01*
X150766476Y-44202380D01*
X149861714Y-45202380D02*
X150433142Y-45202380D01*
X150147428Y-45202380D02*
X150147428Y-44202380D01*
X150242666Y-44345238D01*
X150337904Y-44440476D01*
X150433142Y-44488095D01*
%TO.C,R2*%
X117137666Y-50391380D02*
X117471000Y-49915190D01*
X117709095Y-50391380D02*
X117709095Y-49391380D01*
X117328142Y-49391380D01*
X117232904Y-49439000D01*
X117185285Y-49486619D01*
X117137666Y-49581857D01*
X117137666Y-49724714D01*
X117185285Y-49819952D01*
X117232904Y-49867571D01*
X117328142Y-49915190D01*
X117709095Y-49915190D01*
X116756714Y-49486619D02*
X116709095Y-49439000D01*
X116613857Y-49391380D01*
X116375761Y-49391380D01*
X116280523Y-49439000D01*
X116232904Y-49486619D01*
X116185285Y-49581857D01*
X116185285Y-49677095D01*
X116232904Y-49819952D01*
X116804333Y-50391380D01*
X116185285Y-50391380D01*
X148837666Y-50391380D02*
X149171000Y-49915190D01*
X149409095Y-50391380D02*
X149409095Y-49391380D01*
X149028142Y-49391380D01*
X148932904Y-49439000D01*
X148885285Y-49486619D01*
X148837666Y-49581857D01*
X148837666Y-49724714D01*
X148885285Y-49819952D01*
X148932904Y-49867571D01*
X149028142Y-49915190D01*
X149409095Y-49915190D01*
X148456714Y-49486619D02*
X148409095Y-49439000D01*
X148313857Y-49391380D01*
X148075761Y-49391380D01*
X147980523Y-49439000D01*
X147932904Y-49486619D01*
X147885285Y-49581857D01*
X147885285Y-49677095D01*
X147932904Y-49819952D01*
X148504333Y-50391380D01*
X147885285Y-50391380D01*
%TO.C,R1*%
X121051166Y-50518380D02*
X121384500Y-50042190D01*
X121622595Y-50518380D02*
X121622595Y-49518380D01*
X121241642Y-49518380D01*
X121146404Y-49566000D01*
X121098785Y-49613619D01*
X121051166Y-49708857D01*
X121051166Y-49851714D01*
X121098785Y-49946952D01*
X121146404Y-49994571D01*
X121241642Y-50042190D01*
X121622595Y-50042190D01*
X120098785Y-50518380D02*
X120670214Y-50518380D01*
X120384500Y-50518380D02*
X120384500Y-49518380D01*
X120479738Y-49661238D01*
X120574976Y-49756476D01*
X120670214Y-49804095D01*
X152751166Y-50518380D02*
X153084500Y-50042190D01*
X153322595Y-50518380D02*
X153322595Y-49518380D01*
X152941642Y-49518380D01*
X152846404Y-49566000D01*
X152798785Y-49613619D01*
X152751166Y-49708857D01*
X152751166Y-49851714D01*
X152798785Y-49946952D01*
X152846404Y-49994571D01*
X152941642Y-50042190D01*
X153322595Y-50042190D01*
X151798785Y-50518380D02*
X152370214Y-50518380D01*
X152084500Y-50518380D02*
X152084500Y-49518380D01*
X152179738Y-49661238D01*
X152274976Y-49756476D01*
X152370214Y-49804095D01*
%TO.C,R3*%
X110787666Y-51028380D02*
X111121000Y-50552190D01*
X111359095Y-51028380D02*
X111359095Y-50028380D01*
X110978142Y-50028380D01*
X110882904Y-50076000D01*
X110835285Y-50123619D01*
X110787666Y-50218857D01*
X110787666Y-50361714D01*
X110835285Y-50456952D01*
X110882904Y-50504571D01*
X110978142Y-50552190D01*
X111359095Y-50552190D01*
X110454333Y-50028380D02*
X109835285Y-50028380D01*
X110168619Y-50409333D01*
X110025761Y-50409333D01*
X109930523Y-50456952D01*
X109882904Y-50504571D01*
X109835285Y-50599809D01*
X109835285Y-50837904D01*
X109882904Y-50933142D01*
X109930523Y-50980761D01*
X110025761Y-51028380D01*
X110311476Y-51028380D01*
X110406714Y-50980761D01*
X110454333Y-50933142D01*
X142487666Y-51028380D02*
X142821000Y-50552190D01*
X143059095Y-51028380D02*
X143059095Y-50028380D01*
X142678142Y-50028380D01*
X142582904Y-50076000D01*
X142535285Y-50123619D01*
X142487666Y-50218857D01*
X142487666Y-50361714D01*
X142535285Y-50456952D01*
X142582904Y-50504571D01*
X142678142Y-50552190D01*
X143059095Y-50552190D01*
X142154333Y-50028380D02*
X141535285Y-50028380D01*
X141868619Y-50409333D01*
X141725761Y-50409333D01*
X141630523Y-50456952D01*
X141582904Y-50504571D01*
X141535285Y-50599809D01*
X141535285Y-50837904D01*
X141582904Y-50933142D01*
X141630523Y-50980761D01*
X141725761Y-51028380D01*
X142011476Y-51028380D01*
X142106714Y-50980761D01*
X142154333Y-50933142D01*
%TO.C,R4*%
X104437666Y-53059380D02*
X104771000Y-52583190D01*
X105009095Y-53059380D02*
X105009095Y-52059380D01*
X104628142Y-52059380D01*
X104532904Y-52107000D01*
X104485285Y-52154619D01*
X104437666Y-52249857D01*
X104437666Y-52392714D01*
X104485285Y-52487952D01*
X104532904Y-52535571D01*
X104628142Y-52583190D01*
X105009095Y-52583190D01*
X103580523Y-52392714D02*
X103580523Y-53059380D01*
X103818619Y-52011761D02*
X104056714Y-52726047D01*
X103437666Y-52726047D01*
X136137666Y-53059380D02*
X136471000Y-52583190D01*
X136709095Y-53059380D02*
X136709095Y-52059380D01*
X136328142Y-52059380D01*
X136232904Y-52107000D01*
X136185285Y-52154619D01*
X136137666Y-52249857D01*
X136137666Y-52392714D01*
X136185285Y-52487952D01*
X136232904Y-52535571D01*
X136328142Y-52583190D01*
X136709095Y-52583190D01*
X135280523Y-52392714D02*
X135280523Y-53059380D01*
X135518619Y-52011761D02*
X135756714Y-52726047D01*
X135137666Y-52726047D01*
%TO.C,U1*%
X109096904Y-60187380D02*
X109096904Y-60996904D01*
X109049285Y-61092142D01*
X109001666Y-61139761D01*
X108906428Y-61187380D01*
X108715952Y-61187380D01*
X108620714Y-61139761D01*
X108573095Y-61092142D01*
X108525476Y-60996904D01*
X108525476Y-60187380D01*
X107525476Y-61187380D02*
X108096904Y-61187380D01*
X107811190Y-61187380D02*
X107811190Y-60187380D01*
X107906428Y-60330238D01*
X108001666Y-60425476D01*
X108096904Y-60473095D01*
X140796904Y-60187380D02*
X140796904Y-60996904D01*
X140749285Y-61092142D01*
X140701666Y-61139761D01*
X140606428Y-61187380D01*
X140415952Y-61187380D01*
X140320714Y-61139761D01*
X140273095Y-61092142D01*
X140225476Y-60996904D01*
X140225476Y-60187380D01*
X139225476Y-61187380D02*
X139796904Y-61187380D01*
X139511190Y-61187380D02*
X139511190Y-60187380D01*
X139606428Y-60330238D01*
X139701666Y-60425476D01*
X139796904Y-60473095D01*
%TO.C,C12*%
X111232142Y-71395142D02*
X111279761Y-71347523D01*
X111327380Y-71204666D01*
X111327380Y-71109428D01*
X111279761Y-70966571D01*
X111184523Y-70871333D01*
X111089285Y-70823714D01*
X110898809Y-70776095D01*
X110755952Y-70776095D01*
X110565476Y-70823714D01*
X110470238Y-70871333D01*
X110375000Y-70966571D01*
X110327380Y-71109428D01*
X110327380Y-71204666D01*
X110375000Y-71347523D01*
X110422619Y-71395142D01*
X111327380Y-72347523D02*
X111327380Y-71776095D01*
X111327380Y-72061809D02*
X110327380Y-72061809D01*
X110470238Y-71966571D01*
X110565476Y-71871333D01*
X110613095Y-71776095D01*
X110422619Y-72728476D02*
X110375000Y-72776095D01*
X110327380Y-72871333D01*
X110327380Y-73109428D01*
X110375000Y-73204666D01*
X110422619Y-73252285D01*
X110517857Y-73299904D01*
X110613095Y-73299904D01*
X110755952Y-73252285D01*
X111327380Y-72680857D01*
X111327380Y-73299904D01*
X142932142Y-71395142D02*
X142979761Y-71347523D01*
X143027380Y-71204666D01*
X143027380Y-71109428D01*
X142979761Y-70966571D01*
X142884523Y-70871333D01*
X142789285Y-70823714D01*
X142598809Y-70776095D01*
X142455952Y-70776095D01*
X142265476Y-70823714D01*
X142170238Y-70871333D01*
X142075000Y-70966571D01*
X142027380Y-71109428D01*
X142027380Y-71204666D01*
X142075000Y-71347523D01*
X142122619Y-71395142D01*
X143027380Y-72347523D02*
X143027380Y-71776095D01*
X143027380Y-72061809D02*
X142027380Y-72061809D01*
X142170238Y-71966571D01*
X142265476Y-71871333D01*
X142313095Y-71776095D01*
X142122619Y-72728476D02*
X142075000Y-72776095D01*
X142027380Y-72871333D01*
X142027380Y-73109428D01*
X142075000Y-73204666D01*
X142122619Y-73252285D01*
X142217857Y-73299904D01*
X142313095Y-73299904D01*
X142455952Y-73252285D01*
X143027380Y-72680857D01*
X143027380Y-73299904D01*
%TO.C,C1*%
X180379666Y-61407142D02*
X180427285Y-61454761D01*
X180570142Y-61502380D01*
X180665380Y-61502380D01*
X180808238Y-61454761D01*
X180903476Y-61359523D01*
X180951095Y-61264285D01*
X180998714Y-61073809D01*
X180998714Y-60930952D01*
X180951095Y-60740476D01*
X180903476Y-60645238D01*
X180808238Y-60550000D01*
X180665380Y-60502380D01*
X180570142Y-60502380D01*
X180427285Y-60550000D01*
X180379666Y-60597619D01*
X179427285Y-61502380D02*
X179998714Y-61502380D01*
X179713000Y-61502380D02*
X179713000Y-60502380D01*
X179808238Y-60645238D01*
X179903476Y-60740476D01*
X179998714Y-60788095D01*
%TO.C,U1*%
X172496904Y-60187380D02*
X172496904Y-60996904D01*
X172449285Y-61092142D01*
X172401666Y-61139761D01*
X172306428Y-61187380D01*
X172115952Y-61187380D01*
X172020714Y-61139761D01*
X171973095Y-61092142D01*
X171925476Y-60996904D01*
X171925476Y-60187380D01*
X170925476Y-61187380D02*
X171496904Y-61187380D01*
X171211190Y-61187380D02*
X171211190Y-60187380D01*
X171306428Y-60330238D01*
X171401666Y-60425476D01*
X171496904Y-60473095D01*
%TO.C,R9*%
X179648666Y-59282380D02*
X179982000Y-58806190D01*
X180220095Y-59282380D02*
X180220095Y-58282380D01*
X179839142Y-58282380D01*
X179743904Y-58330000D01*
X179696285Y-58377619D01*
X179648666Y-58472857D01*
X179648666Y-58615714D01*
X179696285Y-58710952D01*
X179743904Y-58758571D01*
X179839142Y-58806190D01*
X180220095Y-58806190D01*
X179172476Y-59282380D02*
X178982000Y-59282380D01*
X178886761Y-59234761D01*
X178839142Y-59187142D01*
X178743904Y-59044285D01*
X178696285Y-58853809D01*
X178696285Y-58472857D01*
X178743904Y-58377619D01*
X178791523Y-58330000D01*
X178886761Y-58282380D01*
X179077238Y-58282380D01*
X179172476Y-58330000D01*
X179220095Y-58377619D01*
X179267714Y-58472857D01*
X179267714Y-58710952D01*
X179220095Y-58806190D01*
X179172476Y-58853809D01*
X179077238Y-58901428D01*
X178886761Y-58901428D01*
X178791523Y-58853809D01*
X178743904Y-58806190D01*
X178696285Y-58710952D01*
%TO.C,R8*%
X179775666Y-57250380D02*
X180109000Y-56774190D01*
X180347095Y-57250380D02*
X180347095Y-56250380D01*
X179966142Y-56250380D01*
X179870904Y-56298000D01*
X179823285Y-56345619D01*
X179775666Y-56440857D01*
X179775666Y-56583714D01*
X179823285Y-56678952D01*
X179870904Y-56726571D01*
X179966142Y-56774190D01*
X180347095Y-56774190D01*
X179204238Y-56678952D02*
X179299476Y-56631333D01*
X179347095Y-56583714D01*
X179394714Y-56488476D01*
X179394714Y-56440857D01*
X179347095Y-56345619D01*
X179299476Y-56298000D01*
X179204238Y-56250380D01*
X179013761Y-56250380D01*
X178918523Y-56298000D01*
X178870904Y-56345619D01*
X178823285Y-56440857D01*
X178823285Y-56488476D01*
X178870904Y-56583714D01*
X178918523Y-56631333D01*
X179013761Y-56678952D01*
X179204238Y-56678952D01*
X179299476Y-56726571D01*
X179347095Y-56774190D01*
X179394714Y-56869428D01*
X179394714Y-57059904D01*
X179347095Y-57155142D01*
X179299476Y-57202761D01*
X179204238Y-57250380D01*
X179013761Y-57250380D01*
X178918523Y-57202761D01*
X178870904Y-57155142D01*
X178823285Y-57059904D01*
X178823285Y-56869428D01*
X178870904Y-56774190D01*
X178918523Y-56726571D01*
X179013761Y-56678952D01*
%TO.C,R4*%
X167837666Y-53059380D02*
X168171000Y-52583190D01*
X168409095Y-53059380D02*
X168409095Y-52059380D01*
X168028142Y-52059380D01*
X167932904Y-52107000D01*
X167885285Y-52154619D01*
X167837666Y-52249857D01*
X167837666Y-52392714D01*
X167885285Y-52487952D01*
X167932904Y-52535571D01*
X168028142Y-52583190D01*
X168409095Y-52583190D01*
X166980523Y-52392714D02*
X166980523Y-53059380D01*
X167218619Y-52011761D02*
X167456714Y-52726047D01*
X166837666Y-52726047D01*
%TO.C,R3*%
X174187666Y-51028380D02*
X174521000Y-50552190D01*
X174759095Y-51028380D02*
X174759095Y-50028380D01*
X174378142Y-50028380D01*
X174282904Y-50076000D01*
X174235285Y-50123619D01*
X174187666Y-50218857D01*
X174187666Y-50361714D01*
X174235285Y-50456952D01*
X174282904Y-50504571D01*
X174378142Y-50552190D01*
X174759095Y-50552190D01*
X173854333Y-50028380D02*
X173235285Y-50028380D01*
X173568619Y-50409333D01*
X173425761Y-50409333D01*
X173330523Y-50456952D01*
X173282904Y-50504571D01*
X173235285Y-50599809D01*
X173235285Y-50837904D01*
X173282904Y-50933142D01*
X173330523Y-50980761D01*
X173425761Y-51028380D01*
X173711476Y-51028380D01*
X173806714Y-50980761D01*
X173854333Y-50933142D01*
%TO.C,R2*%
X180537666Y-50391380D02*
X180871000Y-49915190D01*
X181109095Y-50391380D02*
X181109095Y-49391380D01*
X180728142Y-49391380D01*
X180632904Y-49439000D01*
X180585285Y-49486619D01*
X180537666Y-49581857D01*
X180537666Y-49724714D01*
X180585285Y-49819952D01*
X180632904Y-49867571D01*
X180728142Y-49915190D01*
X181109095Y-49915190D01*
X180156714Y-49486619D02*
X180109095Y-49439000D01*
X180013857Y-49391380D01*
X179775761Y-49391380D01*
X179680523Y-49439000D01*
X179632904Y-49486619D01*
X179585285Y-49581857D01*
X179585285Y-49677095D01*
X179632904Y-49819952D01*
X180204333Y-50391380D01*
X179585285Y-50391380D01*
%TO.C,R1*%
X184451166Y-50518380D02*
X184784500Y-50042190D01*
X185022595Y-50518380D02*
X185022595Y-49518380D01*
X184641642Y-49518380D01*
X184546404Y-49566000D01*
X184498785Y-49613619D01*
X184451166Y-49708857D01*
X184451166Y-49851714D01*
X184498785Y-49946952D01*
X184546404Y-49994571D01*
X184641642Y-50042190D01*
X185022595Y-50042190D01*
X183498785Y-50518380D02*
X184070214Y-50518380D01*
X183784500Y-50518380D02*
X183784500Y-49518380D01*
X183879738Y-49661238D01*
X183974976Y-49756476D01*
X184070214Y-49804095D01*
%TO.C,F1*%
X182609333Y-44678571D02*
X182942666Y-44678571D01*
X182942666Y-45202380D02*
X182942666Y-44202380D01*
X182466476Y-44202380D01*
X181561714Y-45202380D02*
X182133142Y-45202380D01*
X181847428Y-45202380D02*
X181847428Y-44202380D01*
X181942666Y-44345238D01*
X182037904Y-44440476D01*
X182133142Y-44488095D01*
%TO.C,C12*%
X174632142Y-71395142D02*
X174679761Y-71347523D01*
X174727380Y-71204666D01*
X174727380Y-71109428D01*
X174679761Y-70966571D01*
X174584523Y-70871333D01*
X174489285Y-70823714D01*
X174298809Y-70776095D01*
X174155952Y-70776095D01*
X173965476Y-70823714D01*
X173870238Y-70871333D01*
X173775000Y-70966571D01*
X173727380Y-71109428D01*
X173727380Y-71204666D01*
X173775000Y-71347523D01*
X173822619Y-71395142D01*
X174727380Y-72347523D02*
X174727380Y-71776095D01*
X174727380Y-72061809D02*
X173727380Y-72061809D01*
X173870238Y-71966571D01*
X173965476Y-71871333D01*
X174013095Y-71776095D01*
X173822619Y-72728476D02*
X173775000Y-72776095D01*
X173727380Y-72871333D01*
X173727380Y-73109428D01*
X173775000Y-73204666D01*
X173822619Y-73252285D01*
X173917857Y-73299904D01*
X174013095Y-73299904D01*
X174155952Y-73252285D01*
X174727380Y-72680857D01*
X174727380Y-73299904D01*
%TO.C,C11*%
X172346142Y-71268142D02*
X172393761Y-71220523D01*
X172441380Y-71077666D01*
X172441380Y-70982428D01*
X172393761Y-70839571D01*
X172298523Y-70744333D01*
X172203285Y-70696714D01*
X172012809Y-70649095D01*
X171869952Y-70649095D01*
X171679476Y-70696714D01*
X171584238Y-70744333D01*
X171489000Y-70839571D01*
X171441380Y-70982428D01*
X171441380Y-71077666D01*
X171489000Y-71220523D01*
X171536619Y-71268142D01*
X172441380Y-72220523D02*
X172441380Y-71649095D01*
X172441380Y-71934809D02*
X171441380Y-71934809D01*
X171584238Y-71839571D01*
X171679476Y-71744333D01*
X171727095Y-71649095D01*
X172441380Y-73172904D02*
X172441380Y-72601476D01*
X172441380Y-72887190D02*
X171441380Y-72887190D01*
X171584238Y-72791952D01*
X171679476Y-72696714D01*
X171727095Y-72601476D01*
%TO.C,C2*%
X167837666Y-54869142D02*
X167885285Y-54916761D01*
X168028142Y-54964380D01*
X168123380Y-54964380D01*
X168266238Y-54916761D01*
X168361476Y-54821523D01*
X168409095Y-54726285D01*
X168456714Y-54535809D01*
X168456714Y-54392952D01*
X168409095Y-54202476D01*
X168361476Y-54107238D01*
X168266238Y-54012000D01*
X168123380Y-53964380D01*
X168028142Y-53964380D01*
X167885285Y-54012000D01*
X167837666Y-54059619D01*
X167456714Y-54059619D02*
X167409095Y-54012000D01*
X167313857Y-53964380D01*
X167075761Y-53964380D01*
X166980523Y-54012000D01*
X166932904Y-54059619D01*
X166885285Y-54154857D01*
X166885285Y-54250095D01*
X166932904Y-54392952D01*
X167504333Y-54964380D01*
X166885285Y-54964380D01*
%TD*%
M02*
